# xmcd CD database file
#
# Track frame offsets:
#	150
#	13499
#	29217
#	46815
#
# Disc length: 807 seconds
#
# Revision: 1
# Processed by: cddbd v1.5.1PL0 Copyright (c) Steve Scherf et al.
# Submitted via: CDex 1.40Beta4
#
DISCID=33032504
DTITLE=The Black Keys - 10 A.M. Automatic
DYEAR=2004
DGENRE=Blues
TTITLE0=10 A.M. Automatic
TTITLE1=The Breaks (Live)
TTITLE2=I Cry Alone (Live)
TTITLE3=No Fun (Live)
EXTD=YEAR: 2004 ID3G:   0
EXTT0=
EXTT1=
EXTT2=
EXTT3=
PLAYORDER=
